<?xml version="1.0" encoding="utf-8"?>
<svg xmlns="http://www.w3.org/2000/svg" width="136" height="24" viewBox="24.6 98.3 97.1 17.1">
  <!-- ISO certification seal: solid green medallion with a centered verified checkmark -->
  <circle cx="33.55" cy="106.9" r="8.3" style="fill: rgb(2, 135, 62);"/>
  <path d="M 29.75 107.2 L 32.15 109.6 L 37.35 104.2" style="fill: none; stroke: rgb(255, 255, 255); stroke-width: 2.2; stroke-linecap: round; stroke-linejoin: round;"/>
  <!-- "QM Welt" wordmark (text converted to vector paths) -->
  <path d="M 60.746 114.095 L 59.192 112.523 Q 58.452 113.022 57.546 113.3 Q 56.639 113.577 55.622 113.577 Q 53.716 113.577 52.255 112.726 Q 50.793 111.875 49.961 110.358 Q 49.128 108.841 49.128 106.88 Q 49.128 105.4 49.6 104.179 Q 50.072 102.958 50.932 102.061 Q 51.792 101.164 52.967 100.673 Q 54.142 100.183 55.566 100.183 Q 57.453 100.183 58.905 101.043 Q 60.358 101.904 61.181 103.411 Q 62.004 104.919 62.004 106.88 Q 62.004 108.231 61.606 109.387 Q 61.209 110.543 60.487 111.394 L 61.967 112.893 Z M 55.622 111.838 Q 56.251 111.838 56.815 111.662 Q 57.379 111.487 57.842 111.154 L 56.084 109.359 L 57.324 108.175 L 59.137 110.025 Q 59.581 109.396 59.83 108.61 Q 60.08 107.824 60.08 106.88 Q 60.08 105.437 59.497 104.318 Q 58.915 103.199 57.906 102.56 Q 56.898 101.922 55.566 101.922 Q 54.253 101.922 53.235 102.56 Q 52.218 103.199 51.635 104.318 Q 51.052 105.437 51.052 106.88 Q 51.052 108.342 51.635 109.452 Q 52.218 110.562 53.254 111.2 Q 54.29 111.838 55.622 111.838 Z M 64.438 113.355 L 64.438 100.405 L 66.455 100.405 L 70.691 106.658 L 74.909 100.405 L 76.926 100.405 L 76.926 113.355 L 75.039 113.355 L 75.039 103.439 L 70.691 109.877 L 66.344 103.458 L 66.344 113.355 Z M 87.123 113.355 L 83.22 100.405 L 85.144 100.405 L 88.159 110.432 L 91.064 100.405 L 92.951 100.405 L 95.837 110.377 L 98.889 100.405 L 100.795 100.405 L 96.836 113.355 L 94.819 113.355 L 92.007 103.439 L 89.14 113.355 Z M 105.518 113.577 Q 104.168 113.577 103.122 112.957 Q 102.077 112.338 101.485 111.246 Q 100.893 110.155 100.893 108.73 Q 100.893 107.306 101.494 106.214 Q 102.096 105.123 103.141 104.503 Q 104.186 103.883 105.537 103.883 Q 106.795 103.883 107.775 104.521 Q 108.756 105.16 109.311 106.334 Q 109.866 107.509 109.866 109.137 L 102.762 109.137 Q 102.854 110.451 103.668 111.191 Q 104.482 111.931 105.648 111.931 Q 106.554 111.931 107.165 111.514 Q 107.775 111.098 108.108 110.432 L 109.699 111.154 Q 109.329 111.894 108.737 112.439 Q 108.145 112.985 107.34 113.281 Q 106.536 113.577 105.518 113.577 Z M 102.891 107.694 L 107.886 107.694 Q 107.831 106.973 107.488 106.482 Q 107.146 105.992 106.628 105.724 Q 106.11 105.456 105.5 105.456 Q 104.908 105.456 104.325 105.715 Q 103.742 105.974 103.354 106.473 Q 102.965 106.973 102.891 107.694 Z M 111.565 113.355 L 111.565 100.405 L 113.396 100.405 L 113.396 113.355 Z M 119.413 113.577 Q 117.989 113.577 117.23 112.856 Q 116.472 112.134 116.472 110.802 L 116.472 105.678 L 114.918 105.678 L 114.918 104.105 L 116.472 104.105 L 116.472 101.219 L 118.303 101.219 L 118.303 104.105 L 120.912 104.105 L 120.912 105.678 L 118.303 105.678 L 118.303 110.525 Q 118.303 111.191 118.636 111.542 Q 118.969 111.894 119.598 111.894 Q 119.802 111.894 120.014 111.82 Q 120.227 111.746 120.542 111.524 L 121.226 112.948 Q 120.745 113.281 120.301 113.429 Q 119.857 113.577 119.413 113.577 Z" style="fill: rgb(51, 51, 51); text-wrap-mode: nowrap;"/>
</svg>
